# xmcd
#
# Track frame offsets:
#	150
#	28115
#	45815
#	66480
#	86517
#	104850
#	122130
#	139942
#	157672
#	177930
#	198357
#	214792
#	230527
#	248752
#	267010
#	283725
#	296752
#	315790
#
# Disc length: 4459 seconds
#
# Revision: 0
# Processed by: cddbd v1.5.2PL0 Copyright (c) Steve Scherf et al.
# Submitted via: EasyCDDAExtractor 10.0.3.1
#
DISCID=03116912
DTITLE=Various Artist - SIMPLY THE BEST SUPER STARS
DYEAR=1900
DGENRE=
TTITLE0=MADONNA - Frozen
TTITLE1=ERIC CLAPTON - Change The World
TTITLE2=THE CORRS - What Can I Do - UNPLUGGED
TTITLE3=ENYA - Orinoco Flow
TTITLE4=WET WET WET - Love Is All Around
TTITLE5=ELTON JOHN - Candle The Wind
TTITLE6=SHANIA TWAIN - That Don't Impress Me Much
TTITLE7=RONAN KEATING - Life A Rollercoaster
TTITLE8=BRYAN ADAMS - Can't Stop This Thing We Started
TTITLE9=BON JOVI - These Days
TTITLE10=R.E.M. - Daysleeper
TTITLE11=BOYZONE - A Picture Of You
TTITLE12=BEE GEES - You Win Again
TTITLE13=ALL SAINTS - Lady Marmolade
TTITLE14=CHER - Strong Enough
TTITLE15=PHIL COLLINS - You Can't Hurry Love
TTITLE16=ABBA - Super Trouper
TTITLE17=TINA TURNER - The Best
EXTD=
EXTT0=
EXTT1=
EXTT2=
EXTT3=
EXTT4=
EXTT5=
EXTT6=
EXTT7=
EXTT8=
EXTT9=
EXTT10=
EXTT11=
EXTT12=
EXTT13=
EXTT14=
EXTT15=
EXTT16=
EXTT17=
PLAYORDER=
